<?xml version="1.0" encoding="UTF-8" standalone="no"?>
<!-- Created with Inkscape (http://www.inkscape.org/) -->

<svg
   xmlns:dc="http://purl.org/dc/elements/1.1/"
   xmlns:cc="http://creativecommons.org/ns#"
   xmlns:rdf="http://www.w3.org/1999/02/22-rdf-syntax-ns#"
   xmlns:svg="http://www.w3.org/2000/svg"
   xmlns="http://www.w3.org/2000/svg"
   xmlns:sodipodi="http://sodipodi.sourceforge.net/DTD/sodipodi-0.dtd"
   xmlns:inkscape="http://www.inkscape.org/namespaces/inkscape"
   width="245.61273"
   height="73.110947"
   id="svg2"
   version="1.1"
   inkscape:version="0.48.2 r9819"
   sodipodi:docname="sfb-logo-2013-04-1.svg"
   inkscape:export-filename="/home/flux4/svn/thpstuff/trunk/sfb680/webpage/update-2013-04/images/sfb_680_header_text_2013-04.png"
   inkscape:export-xdpi="180"
   inkscape:export-ydpi="180">
  <defs
     id="defs4" />
  <sodipodi:namedview
     id="base"
     pagecolor="#ffffff"
     bordercolor="#666666"
     borderopacity="1.0"
     inkscape:pageopacity="0.0"
     inkscape:pageshadow="2"
     inkscape:zoom="2.4622066"
     inkscape:cx="128.86001"
     inkscape:cy="-3.4070576"
     inkscape:document-units="px"
     inkscape:current-layer="layer1"
     showgrid="false"
     inkscape:window-width="1173"
     inkscape:window-height="925"
     inkscape:window-x="493"
     inkscape:window-y="25"
     inkscape:window-maximized="0"
     fit-margin-top="0"
     fit-margin-left="0"
     fit-margin-right="0"
     fit-margin-bottom="0" />
  <metadata
     id="metadata7">
    <rdf:RDF>
      <cc:Work
         rdf:about="">
        <dc:format>image/svg+xml</dc:format>
        <dc:type
           rdf:resource="http://purl.org/dc/dcmitype/StillImage" />
        <dc:title></dc:title>
      </cc:Work>
    </rdf:RDF>
  </metadata>
  <g
     inkscape:label="BG"
     inkscape:groupmode="layer"
     id="layer1"
     sodipodi:insensitive="true"
     transform="translate(-62.923512,-89.740242)">
    <rect
       style="fill:#808796;fill-opacity:1;stroke:none"
       id="rect3158"
       width="245.61273"
       height="73.110947"
       x="62.923512"
       y="89.740242" />
  </g>
  <g
     inkscape:groupmode="layer"
     id="layer2"
     inkscape:label="Logo"
     sodipodi:insensitive="true"
     transform="translate(-62.923512,-89.740242)">
    <g
       id="g4028"
       transform="matrix(1.6173979,0,0,1.6173979,-40.710116,-64.480419)"
       style="fill:#a4adb6;fill-opacity:1">
      <path
         sodipodi:nodetypes="ccccc"
         inkscape:connector-curvature="0"
         id="path2985"
         d="M 65.938211,97.202918 C 80.038745,117.24339 98.92645,124.61365 116.57481,126.70424 l -1.34122,-3.73013 C 95.854514,122.51981 81.262366,115.54077 71.222031,98.083556 z"
         style="color:#000000;fill:#a4adb6;fill-opacity:1;stroke:none;stroke-width:1;marker:none;visibility:visible;display:inline;overflow:visible;enable-background:accumulate" />
      <path
         sodipodi:nodetypes="ccccc"
         inkscape:connector-curvature="0"
         id="path3755"
         d="m 80.468715,99.9916 c 4.782503,19.38947 24.453125,33.25129 40.068965,39.18833 l -1.46774,-4.25641 C 104.7856,129.54981 88.991966,123.47568 85.01867,100.72546 z"
         style="color:#000000;fill:#a4adb6;fill-opacity:1;stroke:none;stroke-width:1;marker:none;visibility:visible;display:inline;overflow:visible;enable-background:accumulate" />
      <path
         transform="matrix(0.20336132,0.0364091,-0.03278325,0.08084452,48.065307,69.836808)"
         d="m 213.97133,319.61127 c 0,5.5742 -7.5313,10.09299 -16.82164,10.09299 -9.29034,0 -16.82165,-4.51879 -16.82165,-10.09299 0,-5.57421 7.53131,-10.09299 16.82165,-10.09299 9.29034,0 16.82164,4.51878 16.82164,10.09299 z"
         sodipodi:ry="10.092988"
         sodipodi:rx="16.821646"
         sodipodi:cy="319.61127"
         sodipodi:cx="197.14969"
         id="path3784"
         style="color:#000000;fill:#a4adb6;fill-opacity:1;fill-rule:nonzero;stroke:none;stroke-width:1;marker:none;visibility:visible;display:inline;overflow:visible;enable-background:accumulate"
         sodipodi:type="arc" />
      <path
         transform="matrix(0.15125681,0.02708049,-0.02438365,0.06013082,57.854679,82.364649)"
         d="m 213.97133,319.61127 c 0,5.5742 -7.5313,10.09299 -16.82164,10.09299 -9.29034,0 -16.82165,-4.51879 -16.82165,-10.09299 0,-5.57421 7.53131,-10.09299 16.82165,-10.09299 9.29034,0 16.82164,4.51878 16.82164,10.09299 z"
         sodipodi:ry="10.092988"
         sodipodi:rx="16.821646"
         sodipodi:cy="319.61127"
         sodipodi:cx="197.14969"
         id="path3784-5"
         style="color:#000000;fill:#a4adb6;fill-opacity:1;fill-rule:nonzero;stroke:none;stroke-width:1;marker:none;visibility:visible;display:inline;overflow:visible;enable-background:accumulate"
         sodipodi:type="arc" />
      <path
         transform="matrix(0.09046821,0.02446173,-0.0145841,0.05431601,70.229633,88.89031)"
         d="m 213.97133,319.61127 c 0,5.5742 -7.5313,10.09299 -16.82164,10.09299 -9.29034,0 -16.82165,-4.51879 -16.82165,-10.09299 0,-5.57421 7.53131,-10.09299 16.82165,-10.09299 9.29034,0 16.82164,4.51878 16.82164,10.09299 z"
         sodipodi:ry="10.092988"
         sodipodi:rx="16.821646"
         sodipodi:cy="319.61127"
         sodipodi:cx="197.14969"
         id="path3784-5-3"
         style="color:#000000;fill:#a4adb6;fill-opacity:1;fill-rule:nonzero;stroke:none;stroke-width:1;marker:none;visibility:visible;display:inline;overflow:visible;enable-background:accumulate"
         sodipodi:type="arc" />
      <path
         transform="matrix(-0.07953324,-0.19067226,-0.07183992,0.04949347,152.69268,151.59936)"
         d="m 213.97133,319.61127 c 0,5.5742 -7.5313,10.09299 -16.82164,10.09299 -9.29034,0 -16.82165,-4.51879 -16.82165,-10.09299 0,-5.57421 7.53131,-10.09299 16.82165,-10.09299 9.29034,0 16.82164,4.51878 16.82164,10.09299 z"
         sodipodi:ry="10.092988"
         sodipodi:rx="16.821646"
         sodipodi:cy="319.61127"
         sodipodi:cx="197.14969"
         id="path3784-3"
         style="color:#000000;fill:#a4adb6;fill-opacity:1;fill-rule:nonzero;stroke:none;stroke-width:1;marker:none;visibility:visible;display:inline;overflow:visible;enable-background:accumulate"
         sodipodi:type="arc" />
      <path
         transform="matrix(-0.05915553,-0.1418189,-0.05343335,0.03681243,137.31659,144.31111)"
         d="m 213.97133,319.61127 c 0,5.5742 -7.5313,10.09299 -16.82164,10.09299 -9.29034,0 -16.82165,-4.51879 -16.82165,-10.09299 0,-5.57421 7.53131,-10.09299 16.82165,-10.09299 9.29034,0 16.82164,4.51878 16.82164,10.09299 z"
         sodipodi:ry="10.092988"
         sodipodi:rx="16.821646"
         sodipodi:cy="319.61127"
         sodipodi:cx="197.14969"
         id="path3784-5-31"
         style="color:#000000;fill:#a4adb6;fill-opacity:1;fill-rule:nonzero;stroke:none;stroke-width:1;marker:none;visibility:visible;display:inline;overflow:visible;enable-background:accumulate"
         sodipodi:type="arc" />
      <path
         transform="matrix(-0.04704308,-0.10018333,-0.05399963,0.03135373,129.78137,135.89308)"
         d="m 213.97133,319.61127 c 0,5.5742 -7.5313,10.09299 -16.82164,10.09299 -9.29034,0 -16.82165,-4.51879 -16.82165,-10.09299 0,-5.57421 7.53131,-10.09299 16.82165,-10.09299 9.29034,0 16.82164,4.51878 16.82164,10.09299 z"
         sodipodi:ry="10.092988"
         sodipodi:rx="16.821646"
         sodipodi:cy="319.61127"
         sodipodi:cx="197.14969"
         id="path3784-5-3-7"
         style="color:#000000;fill:#a4adb6;fill-opacity:1;fill-rule:nonzero;stroke:none;stroke-width:1;marker:none;visibility:visible;display:inline;overflow:visible;enable-background:accumulate"
         sodipodi:type="arc" />
    </g>
    <text
       xml:space="preserve"
       style="font-size:9.71565247px;font-style:normal;font-variant:normal;font-weight:normal;font-stretch:normal;text-align:start;line-height:125%;letter-spacing:0px;word-spacing:0px;writing-mode:lr-tb;text-anchor:start;fill:#0b0e19;fill-opacity:1;stroke:none;font-family:Trebuchet MS;-inkscape-font-specification:Trebuchet MS"
       x="112.60456"
       y="108.81901"
       id="text4001"
       sodipodi:linespacing="125%"><tspan
         sodipodi:role="line"
         id="tspan4003"
         x="112.60456"
         y="108.81901">COLLABORATIVE RESEARCH CENTRE 680</tspan></text>
    <g
       id="g4080"
       style="fill:#2a3458;fill-opacity:1">
      <text
         sodipodi:linespacing="125%"
         id="text4001-4"
         y="128.92088"
         x="112.81107"
         style="font-size:17.71590233px;font-style:normal;font-variant:normal;font-weight:normal;font-stretch:normal;text-align:start;line-height:125%;letter-spacing:0px;word-spacing:0px;writing-mode:lr-tb;text-anchor:start;fill:#1c2957;fill-opacity:1;stroke:none;font-family:Trebuchet MS;-inkscape-font-specification:Trebuchet MS"
         xml:space="preserve"><tspan
           id="tspan4026"
           y="128.92088"
           x="112.81107"
           sodipodi:role="line"
           style="fill:#1c2957;fill-opacity:1">Molecular Basis of</tspan></text>
      <text
         sodipodi:linespacing="125%"
         id="text4001-4-3"
         y="149.97034"
         x="111.68653"
         style="font-size:17.71590233px;font-style:normal;font-variant:normal;font-weight:normal;font-stretch:normal;text-align:start;line-height:125%;letter-spacing:0px;word-spacing:0px;writing-mode:lr-tb;text-anchor:start;fill:#2a3458;fill-opacity:1;stroke:none;font-family:Trebuchet MS;-inkscape-font-specification:Trebuchet MS"
         xml:space="preserve"><tspan
           id="tspan4026-1"
           y="149.97034"
           x="111.68653"
           sodipodi:role="line"><tspan
             style="fill:#1c2957;fill-opacity:1"
             id="tspan4088">Evolutionary</tspan><tspan
             style="fill:#384ca0;fill-opacity:1"
             id="tspan4086"> Innovations</tspan></tspan></text>
    </g>
  </g>
</svg>
